<?xml version="1.0" standalone="no"?>
<!DOCTYPE svg PUBLIC "-//W3C//DTD SVG 20010904//EN"
 "http://www.w3.org/TR/2001/REC-SVG-20010904/DTD/svg10.dtd">
<svg version="1.0" xmlns="http://www.w3.org/2000/svg"
 width="1074.000000pt" height="1074.000000pt" viewBox="0 0 1074.000000 1074.000000"
 preserveAspectRatio="xMidYMid meet">
<metadata>
Created by potrace 1.14, written by Peter Selinger 2001-2017
</metadata>
<g transform="translate(0.000000,1074.000000) scale(0.100000,-0.100000)"
fill="#000000" stroke="none">
<path d="M5098 10735 c-1 -1 -48 -6 -104 -9 -55 -3 -118 -8 -140 -11 -21 -2
-63 -7 -92 -10 -64 -6 -257 -33 -292 -40 -14 -3 -38 -8 -55 -11 -16 -3 -64
-12 -105 -21 -41 -8 -86 -17 -100 -20 -14 -2 -70 -16 -125 -29 -55 -14 -107
-27 -115 -29 -42 -10 -239 -71 -345 -107 -372 -128 -722 -293 -1070 -506 -93
-57 -326 -212 -335 -222 -3 -4 -32 -26 -65 -50 -77 -56 -250 -194 -295 -235
-19 -18 -60 -54 -90 -81 -70 -61 -347 -340 -422 -425 -45 -51 -148 -176 -231
-279 -69 -86 -226 -314 -317 -460 -204 -329 -404 -757 -522 -1115 -97 -296
-181 -642 -213 -875 -3 -25 -8 -57 -10 -71 -6 -34 -12 -81 -20 -154 -4 -33 -8
-71 -10 -84 -19 -117 -27 -715 -12 -896 14 -167 29 -312 43 -395 2 -14 6 -45
10 -70 3 -25 9 -61 14 -80 5 -19 11 -53 15 -75 14 -96 59 -288 119 -507 20
-72 124 -384 141 -423 8 -16 37 -86 65 -155 199 -481 493 -960 854 -1391 109
-131 372 -403 486 -504 36 -32 81 -72 100 -89 19 -18 85 -71 145 -119 61 -49
117 -94 125 -101 9 -6 38 -27 65 -46 28 -18 52 -37 55 -41 11 -15 336 -223
461 -294 211 -120 468 -243 687 -329 275 -107 569 -197 822 -251 41 -9 84 -18
95 -21 45 -10 245 -43 291 -49 27 -3 60 -8 74 -10 14 -3 50 -7 80 -10 30 -3
75 -8 100 -10 252 -27 805 -27 1035 0 22 3 60 7 85 10 69 8 132 16 160 21 14
2 45 7 70 10 25 3 52 7 60 9 8 2 56 10 105 19 102 19 380 86 500 121 358 103
786 283 1105 462 19 11 62 35 95 53 33 19 78 46 100 60 22 15 94 62 160 105
156 101 434 309 516 385 8 8 49 44 90 80 88 77 352 340 427 425 78 88 82 93
158 185 39 47 90 112 115 145 24 33 47 64 52 70 84 110 241 349 324 495 263
457 453 933 574 1437 35 145 31 129 54 248 25 130 24 127 29 165 3 19 7 51 10
70 11 71 15 107 21 170 4 36 9 76 11 90 25 155 25 864 0 1020 -3 14 -7 57 -11
95 -6 67 -12 112 -20 164 -2 13 -7 45 -11 70 -4 25 -8 55 -10 66 -3 11 -7 36
-10 55 -43 269 -211 844 -314 1075 -10 22 -27 63 -39 90 -12 28 -32 73 -44
100 -23 53 -156 316 -202 400 -91 166 -241 397 -389 595 -55 74 -102 137 -106
140 -3 3 -25 30 -50 60 -115 141 -171 201 -345 375 -151 151 -220 216 -309
290 -27 22 -58 48 -70 58 -47 41 -64 54 -121 97 -33 25 -62 47 -65 50 -3 4
-27 22 -55 41 -27 18 -52 37 -55 40 -10 12 -287 192 -375 244 -273 159 -509
275 -770 377 -332 130 -693 235 -975 284 -30 5 -93 17 -100 19 -3 1 -30 5 -60
9 -30 5 -63 10 -73 12 -10 2 -45 6 -78 9 -33 4 -68 8 -77 10 -9 1 -55 6 -102
10 -47 4 -98 9 -115 12 -36 5 -662 13 -667 8z"/>
</g>
</svg>
