<svg width="113" height="142" viewBox="0 0 113 142" fill="none" xmlns="http://www.w3.org/2000/svg">
<path d="M94.3523 124.877L79.2461 117.206L77.8174 109.197L91.966 116.382L94.3523 124.877Z" fill="#A66CFF" stroke="#A66CFF" stroke-opacity="0.5" stroke-linecap="round" stroke-linejoin="round"/>
<path d="M98.4026 114.145C99.862 113.638 101.265 114.483 101.542 116.03L102.264 120.06C102.54 121.606 101.583 123.27 100.128 123.777L96.3953 125.073C95.7193 125.308 94.9768 125.237 94.3572 124.873C93.7376 124.51 93.3126 123.9 93.1846 123.194L91.9658 116.378L98.4026 114.14V114.145Z" fill="#EBE9E9" stroke="#A66CFF" stroke-opacity="0.5" stroke-linecap="round" stroke-linejoin="round"/>
<path d="M86.1284 107.057C85.5856 106.781 84.925 106.73 84.2542 106.96L77.8174 109.198L91.966 116.382L98.4028 114.144C99.0736 113.914 99.7342 113.965 100.277 114.242L86.1284 107.057Z" fill="#EBE9E9" stroke="#A66CFF" stroke-opacity="0.5" stroke-linecap="round" stroke-linejoin="round"/>
<path d="M55.6808 128.99L41.5322 121.806L40.3135 114.975L54.4621 122.159L55.6808 128.99Z" fill="#A66CFF" stroke="#A66CFF" stroke-opacity="0.5" stroke-linecap="round" stroke-linejoin="round"/>
<path d="M90.2452 106.75L91.9658 116.382L55.6802 128.989L54.4614 122.158C54.1849 120.612 55.1476 118.943 56.6071 118.436L90.2503 106.75H90.2452Z" fill="#EBE9E9" stroke="#A66CFF" stroke-opacity="0.5" stroke-linecap="round" stroke-linejoin="round"/>
<path d="M76.097 99.5664L42.4537 111.252C40.9943 111.759 40.0316 113.423 40.3081 114.975L54.4567 122.159C54.1802 120.613 55.1429 118.943 56.6024 118.436L90.2456 106.751L76.097 99.5664Z" fill="#EBE9E9" stroke="#A66CFF" stroke-opacity="0.5" stroke-linecap="round" stroke-linejoin="round"/>
<path d="M42.4537 111.257C40.9943 111.764 40.0316 113.428 40.3081 114.98L49.761 119.778C49.4999 118.206 50.4062 116.675 51.9117 116.142L78.6779 106.751H90.2405L76.0919 99.5664L42.4486 111.252L42.4537 111.257Z" fill="#A66CFF" stroke="#A66CFF" stroke-opacity="0.5" stroke-linecap="round" stroke-linejoin="round"/>
<path d="M103.688 20.1991L89.5393 13.0147L88.3154 6.18359L102.464 13.368L103.688 20.1991Z" fill="#A66CFF" stroke="#A66CFF" stroke-opacity="0.5" stroke-linecap="round" stroke-linejoin="round"/>
<path d="M108.403 8.33078C109.862 7.82383 111.266 8.66876 111.542 10.2152L112.264 14.2453C112.541 15.7917 111.583 17.456 110.129 17.9629L103.692 20.2007L102.473 13.3696C102.197 11.8231 103.159 10.1538 104.619 9.64681L108.413 8.33078H108.403Z" fill="#EBE9E9" stroke="#A66CFF" stroke-opacity="0.5" stroke-linecap="round" stroke-linejoin="round"/>
<path d="M96.1292 1.24281C95.5864 0.966292 94.9259 0.915083 94.2551 1.14552L90.4606 2.46155C89.0012 2.96851 88.0384 4.63276 88.3149 6.18434L102.464 13.3687C102.187 11.8223 103.15 10.1529 104.609 9.64596L108.404 8.32992C109.074 8.09949 109.735 8.1507 110.278 8.42722L96.1292 1.24281Z" fill="#EBE9E9" stroke="#A66CFF" stroke-opacity="0.5" stroke-linecap="round" stroke-linejoin="round"/>
<path d="M96.34 32.992L82.1914 25.8076L80.9727 18.9766L95.1213 26.161L96.34 32.992Z" fill="#A66CFF" stroke="#A66CFF" stroke-opacity="0.5" stroke-linecap="round" stroke-linejoin="round"/>
<path d="M103.688 20.1992L104.912 27.0405C105.188 28.587 104.231 30.2512 102.776 30.7582L96.3446 32.9908L95.1259 26.1598C94.8493 24.6133 95.8018 22.9388 97.2612 22.4319L103.693 20.1992H103.688Z" fill="#EBE9E9" stroke="#A66CFF" stroke-opacity="0.5" stroke-linecap="round" stroke-linejoin="round"/>
<path d="M89.5395 13.0156L83.1079 15.2483C81.6485 15.7552 80.696 17.4246 80.9725 18.9762L95.1212 26.1606C94.8447 24.6141 95.7971 22.9396 97.2565 22.4327L103.688 20.2L89.5395 13.0156Z" fill="#EBE9E9" stroke="#A66CFF" stroke-opacity="0.5" stroke-linecap="round" stroke-linejoin="round"/>
<path d="M49.0286 140.72L35.2948 133.746C34.5318 133.362 33.7893 132.353 33.6357 131.513L32.9648 127.76L47.1135 134.944L49.0286 140.715V140.72Z" fill="#A66CFF" stroke="#A66CFF" stroke-opacity="0.5" stroke-linecap="round" stroke-linejoin="round"/>
<path d="M55.6802 128.988L56.904 135.835C57.1806 137.371 56.1974 139.051 54.7226 139.563L51.0203 140.848C49.5455 141.36 48.1117 140.52 47.8352 138.984L47.1132 134.949C46.8367 133.402 47.7891 131.728 49.2485 131.221L55.6802 128.988Z" fill="#EBE9E9" stroke="#A66CFF" stroke-opacity="0.5" stroke-linecap="round" stroke-linejoin="round"/>
<path d="M41.5317 121.805L35.1001 124.037C33.6407 124.544 32.6882 126.214 32.9647 127.765L47.1134 134.95C46.8368 133.403 47.7893 131.729 49.2487 131.222L55.6804 128.989L41.5317 121.805Z" fill="#EBE9E9" stroke="#A66CFF" stroke-opacity="0.5" stroke-linecap="round" stroke-linejoin="round"/>
<path d="M35.111 124.049C33.6515 124.556 32.6888 126.22 32.9653 127.771L42.4182 132.569C42.1571 130.997 43.0635 129.466 44.569 128.934L45.2551 128.693L55.6758 128.99L41.5631 121.826L35.1058 124.049H35.111Z" fill="#A66CFF" stroke="#A66CFF" stroke-opacity="0.5" stroke-linecap="round" stroke-linejoin="round"/>
<path d="M90.2461 106.751L76.0975 99.5662L74.377 89.9238L88.5256 97.1082L90.2461 106.751Z" fill="#EBE9E9" stroke="#A66CFF" stroke-opacity="0.5" stroke-linecap="round" stroke-linejoin="round"/>
<path d="M95.8788 84.322L81.7302 77.1427L74.8428 38.5938L88.9965 45.773L95.8788 84.322Z" fill="#A66CFF" stroke="#A66CFF" stroke-opacity="0.5" stroke-linecap="round" stroke-linejoin="round"/>
<path d="M95.8788 84.3215L97.5994 93.9537L98.8181 100.785C99.0946 102.341 98.132 104.006 96.6725 104.513L90.2409 106.745L88.5203 97.1029L45.8031 111.943C44.3437 112.45 42.9406 111.605 42.6641 110.058L41.4453 103.227L95.8737 84.3164L95.8788 84.3215Z" fill="#EBE9E9" stroke="#A66CFF" stroke-opacity="0.5" stroke-linecap="round" stroke-linejoin="round"/>
<path d="M42.6691 110.064L41.4504 103.233L27.3018 96.0488L28.5205 102.88C28.669 103.715 29.1452 104.344 29.7853 104.667L43.9339 111.851C43.299 111.529 42.8176 110.899 42.6691 110.064Z" fill="#A66CFF" stroke="#A66CFF" stroke-opacity="0.5" stroke-linecap="round" stroke-linejoin="round"/>
<path d="M41.4504 103.233L27.3018 96.0484L81.7301 77.1426L95.8787 84.3219L41.4504 103.233Z" fill="#EBE9E9" stroke="#A66CFF" stroke-opacity="0.5" stroke-linecap="round" stroke-linejoin="round"/>
<path d="M62.3945 83.8559L95.8791 84.3219L81.7305 77.1426L62.3945 83.8559Z" fill="#A66CFF" stroke="#A66CFF" stroke-opacity="0.5" stroke-linecap="round" stroke-linejoin="round"/>
<path d="M57.3602 93.4723C69.1279 93.4723 78.6676 83.9326 78.6676 72.1648C78.6676 60.3971 69.1279 50.8574 57.3602 50.8574C45.5924 50.8574 36.0527 60.3971 36.0527 72.1648C36.0527 83.9326 45.5924 93.4723 57.3602 93.4723Z" fill="#EBE9E9" stroke="#A66CFF" stroke-opacity="0.5" stroke-linecap="round" stroke-linejoin="round"/>
<path d="M73.1884 57.9036C69.2864 53.5765 63.6433 50.8574 57.3602 50.8574C45.5927 50.8574 36.0527 60.3974 36.0527 72.1648C36.0527 76.8042 37.5377 81.0903 40.052 84.5878C41.8955 78.1408 44.9884 71.1817 48.6703 66.957C59.8232 54.1603 73.1884 57.9036 73.1884 57.9036Z" fill="#A66CFF" stroke="#A66CFF" stroke-opacity="0.5" stroke-linecap="round" stroke-linejoin="round"/>
<path d="M24.8127 87.4303C24.2699 87.1538 23.6093 87.1026 22.9385 87.333L16.5068 89.5657L30.6555 96.7501L37.0871 94.5174C37.758 94.287 38.4185 94.3382 38.9613 94.6147L24.8127 87.4303Z" fill="#EBE9E9" stroke="#A66CFF" stroke-opacity="0.5" stroke-linecap="round" stroke-linejoin="round"/>
<path d="M37.0928 94.5163C38.5522 94.0094 39.9553 94.8543 40.2318 96.4008L41.4506 103.232L35.0189 105.464C33.5595 105.971 32.1564 105.127 31.8799 103.58L30.6611 96.749L37.0928 94.5163Z" fill="#EBE9E9" stroke="#A66CFF" stroke-opacity="0.5" stroke-linecap="round" stroke-linejoin="round"/>
<path d="M31.8791 103.58L30.6603 96.7489L16.5117 89.5645L17.7305 96.3955C17.879 97.2302 18.3552 97.8601 18.9953 98.1827L33.1439 105.367C32.5089 105.044 32.0276 104.415 31.8791 103.58Z" fill="#A66CFF" stroke="#A66CFF" stroke-opacity="0.5" stroke-linecap="round" stroke-linejoin="round"/>
<path d="M21.0851 97.0918L16.4201 70.9862L15.2014 64.1551L1.05273 56.9707L2.27147 63.8018L6.93647 89.9073C7.08497 90.742 7.56631 91.377 8.2064 91.7047L22.355 98.8891C21.7149 98.5665 21.2336 97.9316 21.0851 97.0918Z" fill="#A66CFF" stroke="#A66CFF" stroke-opacity="0.5" stroke-linecap="round" stroke-linejoin="round"/>
<path d="M82.1909 25.8066L3.19311 53.2538C1.72858 53.7608 0.771027 55.425 1.04755 56.9766L15.1962 64.161C14.9197 62.6146 15.8772 60.9503 17.3417 60.4382L96.3395 32.991L82.1909 25.8066Z" fill="#EBE9E9" stroke="#A66CFF" stroke-opacity="0.5" stroke-linecap="round" stroke-linejoin="round"/>
<path d="M96.3393 32.9902L104.445 78.3703C104.722 79.9168 103.764 81.581 102.31 82.0879L95.8784 84.3206L88.991 45.7716L25.4938 67.8318L30.6606 96.7486L24.229 98.9813C22.7645 99.4883 21.3562 98.6382 21.0797 97.0917L16.4147 70.9862L15.196 64.1551C14.9195 62.6086 15.877 60.9444 17.3415 60.4323L87.2705 36.1395L96.3393 32.9902Z" fill="#EBE9E9" stroke="#A66CFF" stroke-opacity="0.5" stroke-linecap="round" stroke-linejoin="round"/>
</svg>
